# MagicaVoxel @ Ephtracy

# group
o 

# material
mtllib grass.mtl
usemtl palette

# normals
vn -1 0 0
vn 1 0 0
vn 0 0 1
vn 0 0 -1
vn 0 -1 0
vn 0 1 0

# texcoords
vt 0.396484 0.5
vt 0.533203 0.5
vt 0.537109 0.5
vt 0.888672 0.5
vt 0.892578 0.5
vt 0.896484 0.5
vt 0.900391 0.5
vt 0.904297 0.5
vt 0.978516 0.5

# verts
v -1 0 1
v -1 0 0.8
v -1 0 0.7
v -1 0 0.5
v -1 0 -1
v -1 0.1 0.8
v -1 0.1 0.7
v -1 0.1 0.6
v -1 0.1 0.5
v -1 0.1 -0.5
v -1 0.1 -1
v -1 0.4 0.5
v -1 0.4 -0.2
v -1 0.4 -0.5
v -1 0.4 -1
v -1 0.5 1
v -1 0.5 0.9
v -1 0.5 0.8
v -1 0.5 0.6
v -1 0.6 0.8
v -1 0.6 0.6
v -1 0.8 0.1
v -1 0.8 -0.2
v -1 0.8 -0.5
v -1 0.8 -0.8
v -1 0.9 1
v -1 0.9 0.9
v -1 0.9 0.8
v -1 0.9 0.6
v -1 0.9 0.5
v -1 0.9 0.1
v -1 0.9 -0.2
v -1 0.9 -0.4
v -1 0.9 -0.5
v -1 0.9 -0.6
v -1 1.1 0.5
v -1 1.1 0.1
v -1 1.1 -0.6
v -1 1.1 -0.8
v -1 1.2 0.1
v -1 1.2 -0.4
v -1 1.2 -0.6
v -1 1.2 -0.8
v -1 1.4 1
v -1 1.4 0.3
v -1 1.4 0.1
v -1 1.4 -1
v -1 1.5 0.3
v -1 1.5 0.2
v -1 1.5 0.1
v -1 1.5 -0.6
v -1 1.7 0.2
v -1 1.7 -0.4
v -1 1.7 -0.6
v -1 1.7 -0.8
v -1 1.9 -0.2
v -1 1.9 -0.4
v -1 1.9 -0.6
v -1 1.9 -0.8
v -1 2 1
v -1 2 -0.2
v -1 2 -0.6
v -1 2 -1
v 1 0 1
v 1 0 0.9
v 1 0 0.5
v 1 0 0.1
v 1 0 -0.6
v 1 0 -1
v 1 0.3 0.9
v 1 0.3 0.5
v 1 0.3 -0.8
v 1 0.3 -0.9
v 1 0.4 0.7
v 1 0.4 0.5
v 1 0.4 0.4
v 1 0.4 0.1
v 1 0.5 0.1
v 1 0.5 -0.6
v 1 0.5 -0.7
v 1 0.5 -0.8
v 1 0.5 -0.9
v 1 0.5 -1
v 1 0.7 0.4
v 1 0.7 0.1
v 1 0.8 0.9
v 1 0.8 0.7
v 1 0.8 0.5
v 1 0.8 0.3
v 1 0.8 -0.6
v 1 0.8 -0.7
v 1 0.8 -1
v 1 0.9 1
v 1 0.9 0.9
v 1 1.2 0.3
v 1 1.2 -0.6
v 1 1.4 1
v 1 1.4 0.2
v 1 1.4 -0.7
v 1 1.4 -1
v 1 1.5 0
v 1 1.5 -0.3
v 1 1.7 -0.7
v 1 1.7 -0.9
v 1 1.8 1
v 1 1.8 0.2
v 1 1.9 1
v 1 1.9 0.7
v 1 1.9 0.2
v 1 1.9 0
v 1 1.9 -0.1
v 1 1.9 -0.3
v 1 1.9 -0.9
v 1 1.9 -1
v 1 2 1
v 1 2 0.7
v 1 2 0.2
v 1 2 -0.1
v 1 2 -1
v -1 0 1
v -1 0.5 1
v -1 0.9 1
v -1 1.4 1
v -1 2 1
v -0.7 1.9 1
v -0.7 2 1
v -0.4 0.1 1
v -0.4 0.5 1
v -0.4 1.7 1
v -0.4 1.9 1
v -0.3 0.3 1
v -0.3 0.6 1
v -0.3 1.9 1
v -0.3 2 1
v -0.1 0.6 1
v -0.1 0.7 1
v -0.1 0.9 1
v 0 0.3 1
v 0 0.6 1
v 0 1.4 1
v 0 1.7 1
v 0.1 0.7 1
v 0.1 1.2 1
v 0.2 1.4 1
v 0.2 1.7 1
v 0.3 0.7 1
v 0.3 1.1 1
v 0.4 0.1 1
v 0.4 0.3 1
v 0.4 0.7 1
v 0.4 1.7 1
v 0.4 1.9 1
v 0.7 0.2 1
v 0.7 0.7 1
v 0.7 1.1 1
v 0.7 1.2 1
v 0.7 1.9 1
v 0.7 2 1
v 0.8 1.5 1
v 0.8 1.9 1
v 0.9 0 1
v 0.9 0.2 1
v 0.9 0.9 1
v 0.9 1.1 1
v 0.9 1.2 1
v 0.9 1.4 1
v 0.9 1.5 1
v 0.9 1.8 1
v 0.9 1.9 1
v 1 0 1
v 1 0.9 1
v 1 1.4 1
v 1 1.8 1
v 1 1.9 1
v 1 2 1
v -1 0 -1
v -1 0.1 -1
v -1 0.4 -1
v -1 1.4 -1
v -1 2 -1
v -0.9 0.4 -1
v -0.9 0.9 -1
v -0.9 1.5 -1
v -0.9 1.7 -1
v -0.8 0.6 -1
v -0.8 0.8 -1
v -0.7 0.1 -1
v -0.7 0.2 -1
v -0.7 0.6 -1
v -0.7 0.8 -1
v -0.7 1.7 -1
v -0.7 1.9 -1
v -0.6 0.5 -1
v -0.6 0.8 -1
v -0.6 1.5 -1
v -0.6 1.7 -1
v -0.6 1.9 -1
v -0.6 2 -1
v -0.5 1.8 -1
v -0.5 1.9 -1
v -0.4 0.2 -1
v -0.4 0.5 -1
v -0.4 0.9 -1
v -0.4 1 -1
v -0.4 1.8 -1
v -0.4 1.9 -1
v -0.3 0.5 -1
v -0.3 0.8 -1
v -0.3 1.9 -1
v -0.3 2 -1
v -0.2 0.2 -1
v -0.2 0.5 -1
v -0.2 1.4 -1
v -0.2 1.7 -1
v -0.1 1.4 -1
v -0.1 1.9 -1
v 0.3 0.8 -1
v 0.3 1 -1
v 0.3 1.2 -1
v 0.4 0.2 -1
v 0.4 0.5 -1
v 0.4 1 -1
v 0.4 1.2 -1
v 0.4 1.9 -1
v 0.4 2 -1
v 0.5 0.8 -1
v 0.5 1 -1
v 0.6 0.8 -1
v 0.6 1 -1
v 0.6 1.2 -1
v 0.6 1.6 -1
v 0.6 1.9 -1
v 0.8 0.2 -1
v 0.8 0.8 -1
v 0.8 1.9 -1
v 0.8 2 -1
v 0.9 0 -1
v 0.9 0.5 -1
v 0.9 0.8 -1
v 0.9 1.4 -1
v 0.9 1.6 -1
v 1 0 -1
v 1 0.5 -1
v 1 0.8 -1
v 1 1.4 -1
v 1 1.9 -1
v 1 2 -1
v -1 0 1
v 0.9 0 1
v 1 0 1
v 0.9 0 0.9
v 1 0 0.9
v -1 0 0.8
v -0.9 0 0.8
v -1 0 0.7
v -0.9 0 0.7
v -1 0 0.5
v -0.9 0 0.5
v 0.9 0 0.5
v 1 0 0.5
v 0.9 0 0.1
v 1 0 0.1
v 0.9 0 -0.6
v 1 0 -0.6
v -1 0 -1
v 0.9 0 -1
v 1 0 -1
v -1 2 1
v -0.7 2 1
v -0.3 2 1
v 0.7 2 1
v 1 2 1
v 0.2 2 0.9
v 0.7 2 0.9
v -0.8 2 0.8
v -0.7 2 0.8
v -0.3 2 0.8
v 0.2 2 0.8
v -0.7 2 0.7
v -0.3 2 0.7
v 0.7 2 0.7
v 0.8 2 0.7
v 1 2 0.7
v -0.9 2 0.6
v -0.8 2 0.6
v -0.5 2 0.6
v 0.8 2 0.6
v 0.9 2 0.6
v -0.5 2 0.5
v -0.1 2 0.5
v 0.2 2 0.5
v 0.6 2 0.5
v 0.6 2 0.4
v 0.8 2 0.4
v -0.1 2 0.3
v 0.2 2 0.3
v 0.5 2 0.2
v 0.6 2 0.2
v 0.9 2 0.2
v 1 2 0.2
v -0.1 2 0.1
v 0.2 2 0.1
v 0.3 2 0.1
v 0.5 2 0.1
v -0.9 2 0
v -0.6 2 0
v -0.5 2 0
v 0.5 2 -0.1
v 0.9 2 -0.1
v 1 2 -0.1
v -1 2 -0.2
v -0.7 2 -0.2
v -0.6 2 -0.2
v -0.2 2 -0.2
v -0.7 2 -0.4
v -0.2 2 -0.4
v 0.4 2 -0.4
v 0.5 2 -0.4
v 0.8 2 -0.4
v -0.3 2 -0.5
v -0.2 2 -0.5
v 0.1 2 -0.5
v 0.8 2 -0.5
v 0.9 2 -0.5
v -1 2 -0.6
v -0.9 2 -0.6
v -0.7 2 -0.6
v 0.1 2 -0.6
v 0.3 2 -0.6
v -0.6 2 -0.7
v -0.3 2 -0.7
v -0.2 2 -0.7
v 0.1 2 -0.7
v -0.9 2 -0.8
v -0.6 2 -0.8
v -0.3 2 -0.8
v -0.2 2 -0.8
v -1 2 -1
v -0.6 2 -1
v -0.3 2 -1
v 0.4 2 -1
v 0.8 2 -1
v 1 2 -1

# faces
f 6/1/1 2/1/1 1/1/1
f 6/3/1 3/3/1 2/3/1
f 7/9/1 4/9/1 3/9/1
f 7/3/1 3/3/1 6/3/1
f 8/9/1 4/9/1 7/9/1
f 9/1/1 5/1/1 4/1/1
f 9/9/1 4/9/1 8/9/1
f 10/1/1 5/1/1 9/1/1
f 11/1/1 5/1/1 10/1/1
f 12/3/1 9/3/1 8/3/1
f 12/1/1 10/1/1 9/1/1
f 13/1/1 10/1/1 12/1/1
f 14/3/1 11/3/1 10/3/1
f 14/1/1 10/1/1 13/1/1
f 15/3/1 11/3/1 14/3/1
f 16/1/1 6/1/1 1/1/1
f 17/1/1 6/1/1 16/1/1
f 18/2/1 8/2/1 7/2/1
f 18/1/1 6/1/1 17/1/1
f 18/2/1 7/2/1 6/2/1
f 19/3/1 13/3/1 12/3/1
f 19/2/1 8/2/1 18/2/1
f 19/3/1 12/3/1 8/3/1
f 20/1/1 18/1/1 17/1/1
f 20/3/1 19/3/1 18/3/1
f 21/3/1 13/3/1 19/3/1
f 21/3/1 19/3/1 20/3/1
f 22/3/1 13/3/1 21/3/1
f 23/1/1 15/1/1 14/1/1
f 23/3/1 13/3/1 22/3/1
f 23/1/1 14/1/1 13/1/1
f 24/1/1 15/1/1 23/1/1
f 25/1/1 15/1/1 24/1/1
f 26/3/1 17/3/1 16/3/1
f 27/1/1 20/1/1 17/1/1
f 27/3/1 17/3/1 26/3/1
f 28/9/1 21/9/1 20/9/1
f 28/1/1 20/1/1 27/1/1
f 29/3/1 22/3/1 21/3/1
f 29/9/1 21/9/1 28/9/1
f 30/3/1 22/3/1 29/3/1
f 31/9/1 23/9/1 22/9/1
f 31/3/1 22/3/1 30/3/1
f 32/3/1 24/3/1 23/3/1
f 32/9/1 23/9/1 31/9/1
f 33/3/1 24/3/1 32/3/1
f 34/9/1 25/9/1 24/9/1
f 34/3/1 24/3/1 33/3/1
f 35/9/1 25/9/1 34/9/1
f 36/1/1 28/1/1 27/1/1
f 36/1/1 27/1/1 26/1/1
f 36/1/1 30/1/1 29/1/1
f 36/3/1 31/3/1 30/3/1
f 36/3/1 32/3/1 31/3/1
f 36/1/1 29/1/1 28/1/1
f 36/3/1 33/3/1 32/3/1
f 37/3/1 33/3/1 36/3/1
f 38/9/1 25/9/1 35/9/1
f 38/2/1 35/2/1 34/2/1
f 38/2/1 34/2/1 33/2/1
f 39/1/1 15/1/1 25/1/1
f 39/9/1 25/9/1 38/9/1
f 40/3/1 33/3/1 37/3/1
f 40/1/1 37/1/1 36/1/1
f 41/2/1 38/2/1 33/2/1
f 41/3/1 33/3/1 40/3/1
f 42/3/1 39/3/1 38/3/1
f 42/2/1 38/2/1 41/2/1
f 43/1/1 15/1/1 39/1/1
f 43/3/1 39/3/1 42/3/1
f 44/1/1 40/1/1 36/1/1
f 44/1/1 42/1/1 41/1/1
f 44/1/1 43/1/1 42/1/1
f 44/1/1 36/1/1 26/1/1
f 44/1/1 41/1/1 40/1/1
f 45/1/1 43/1/1 44/1/1
f 46/1/1 43/1/1 45/1/1
f 47/1/1 15/1/1 43/1/1
f 47/1/1 43/1/1 46/1/1
f 48/6/1 46/6/1 45/6/1
f 48/4/1 45/4/1 44/4/1
f 49/6/1 46/6/1 48/6/1
f 50/4/1 47/4/1 46/4/1
f 50/6/1 46/6/1 49/6/1
f 51/4/1 47/4/1 50/4/1
f 52/4/1 49/4/1 48/4/1
f 52/6/1 50/6/1 49/6/1
f 52/6/1 51/6/1 50/6/1
f 53/6/1 51/6/1 52/6/1
f 54/4/1 47/4/1 51/4/1
f 54/6/1 51/6/1 53/6/1
f 55/4/1 47/4/1 54/4/1
f 56/4/1 53/4/1 52/4/1
f 57/6/1 54/6/1 53/6/1
f 57/4/1 53/4/1 56/4/1
f 57/6/1 55/6/1 54/6/1
f 58/6/1 55/6/1 57/6/1
f 59/4/1 47/4/1 55/4/1
f 59/6/1 55/6/1 58/6/1
f 60/4/1 48/4/1 44/4/1
f 60/4/1 52/4/1 48/4/1
f 60/4/1 56/4/1 52/4/1
f 61/6/1 58/6/1 57/6/1
f 61/4/1 56/4/1 60/4/1
f 61/6/1 57/6/1 56/6/1
f 62/4/1 59/4/1 58/4/1
f 62/6/1 58/6/1 61/6/1
f 63/4/1 47/4/1 59/4/1
f 63/4/1 59/4/1 62/4/1
f 64/3/2 65/3/2 70/3/2
f 65/9/2 66/9/2 70/9/2
f 66/3/2 67/3/2 71/3/2
f 70/9/2 66/9/2 71/9/2
f 68/3/2 69/3/2 72/3/2
f 72/3/2 69/3/2 73/3/2
f 70/3/2 71/3/2 74/3/2
f 71/3/2 67/3/2 75/3/2
f 74/3/2 71/3/2 75/3/2
f 75/3/2 67/3/2 76/3/2
f 67/1/2 68/1/2 77/1/2
f 76/3/2 67/3/2 77/3/2
f 76/9/2 77/9/2 78/9/2
f 77/1/2 68/1/2 78/1/2
f 68/3/2 72/3/2 79/3/2
f 78/1/2 68/1/2 79/1/2
f 79/3/2 72/3/2 80/3/2
f 72/2/2 73/2/2 81/2/2
f 80/3/2 72/3/2 81/3/2
f 73/3/2 69/3/2 82/3/2
f 81/2/2 73/2/2 82/2/2
f 82/3/2 69/3/2 83/3/2
f 75/3/2 76/3/2 84/3/2
f 76/9/2 78/9/2 84/9/2
f 79/3/2 80/3/2 85/3/2
f 84/9/2 78/9/2 85/9/2
f 78/3/2 79/3/2 85/3/2
f 70/3/2 74/3/2 86/3/2
f 64/3/2 70/3/2 86/3/2
f 74/2/2 75/2/2 87/2/2
f 86/3/2 74/3/2 87/3/2
f 84/3/2 85/3/2 88/3/2
f 87/2/2 75/2/2 88/2/2
f 75/3/2 84/3/2 88/3/2
f 88/3/2 85/3/2 89/3/2
f 85/3/2 80/3/2 90/3/2
f 89/3/2 85/3/2 90/3/2
f 80/9/2 81/9/2 91/9/2
f 90/3/2 80/3/2 91/3/2
f 82/9/2 83/9/2 91/9/2
f 81/9/2 82/9/2 91/9/2
f 91/9/2 83/9/2 92/9/2
f 64/3/2 86/3/2 93/3/2
f 88/1/2 89/1/2 94/1/2
f 93/3/2 86/3/2 94/3/2
f 86/1/2 87/1/2 94/1/2
f 87/1/2 88/1/2 94/1/2
f 89/3/2 90/3/2 95/3/2
f 94/1/2 89/1/2 95/1/2
f 93/1/2 94/1/2 95/1/2
f 91/1/2 92/1/2 96/1/2
f 95/3/2 90/3/2 96/3/2
f 90/1/2 91/1/2 96/1/2
f 93/1/2 95/1/2 97/1/2
f 95/1/2 96/1/2 97/1/2
f 97/1/2 96/1/2 98/1/2
f 96/1/2 92/1/2 99/1/2
f 98/1/2 96/1/2 99/1/2
f 99/1/2 92/1/2 100/1/2
f 98/4/2 99/4/2 101/4/2
f 101/4/2 99/4/2 102/4/2
f 99/7/2 100/7/2 103/7/2
f 102/4/2 99/4/2 103/4/2
f 103/7/2 100/7/2 104/7/2
f 97/8/2 98/8/2 105/8/2
f 98/4/2 101/4/2 106/4/2
f 105/8/2 98/8/2 106/8/2
f 105/4/2 106/4/2 107/4/2
f 107/4/2 106/4/2 108/4/2
f 106/4/2 101/4/2 109/4/2
f 108/4/2 106/4/2 109/4/2
f 101/8/2 102/8/2 110/8/2
f 109/4/2 101/4/2 110/4/2
f 110/8/2 102/8/2 111/8/2
f 102/4/2 103/4/2 112/4/2
f 111/8/2 102/8/2 112/8/2
f 103/4/2 104/4/2 112/4/2
f 104/7/2 100/7/2 113/7/2
f 112/4/2 104/4/2 113/4/2
f 113/7/2 100/7/2 114/7/2
f 107/8/2 108/8/2 115/8/2
f 108/4/2 109/4/2 116/4/2
f 115/8/2 108/8/2 116/8/2
f 110/8/2 111/8/2 117/8/2
f 116/4/2 109/4/2 117/4/2
f 109/8/2 110/8/2 117/8/2
f 111/4/2 112/4/2 118/4/2
f 117/8/2 111/8/2 118/8/2
f 113/4/2 114/4/2 118/4/2
f 112/4/2 113/4/2 118/4/2
f 118/4/2 114/4/2 119/4/2
f 125/4/3 124/4/3 123/4/3
f 126/4/3 124/4/3 125/4/3
f 127/1/3 121/1/3 120/1/3
f 128/3/3 122/3/3 121/3/3
f 128/1/3 121/1/3 127/1/3
f 129/4/3 125/4/3 123/4/3
f 130/7/3 126/7/3 125/7/3
f 130/4/3 125/4/3 129/4/3
f 131/3/3 128/3/3 127/3/3
f 132/3/3 122/3/3 128/3/3
f 132/3/3 128/3/3 131/3/3
f 133/7/3 126/7/3 130/7/3
f 133/7/3 130/7/3 129/7/3
f 134/7/3 126/7/3 133/7/3
f 135/3/3 122/3/3 132/3/3
f 135/2/3 132/2/3 131/2/3
f 136/3/3 122/3/3 135/3/3
f 137/1/3 123/1/3 122/1/3
f 137/3/3 122/3/3 136/3/3
f 138/3/3 131/3/3 127/3/3
f 138/2/3 135/2/3 131/2/3
f 139/9/3 136/9/3 135/9/3
f 139/2/3 135/2/3 138/2/3
f 140/1/3 123/1/3 137/1/3
f 140/4/3 129/4/3 123/4/3
f 140/1/3 137/1/3 136/1/3
f 141/7/3 133/7/3 129/7/3
f 141/4/3 129/4/3 140/4/3
f 142/9/3 136/9/3 139/9/3
f 142/9/3 139/9/3 138/9/3
f 142/1/3 140/1/3 136/1/3
f 143/1/3 140/1/3 142/1/3
f 144/7/3 141/7/3 140/7/3
f 144/1/3 140/1/3 143/1/3
f 145/7/3 133/7/3 141/7/3
f 145/7/3 141/7/3 144/7/3
f 146/3/3 143/3/3 142/3/3
f 146/9/3 142/9/3 138/9/3
f 147/3/3 143/3/3 146/3/3
f 148/1/3 127/1/3 120/1/3
f 148/3/3 138/3/3 127/3/3
f 149/9/3 146/9/3 138/9/3
f 149/3/3 138/3/3 148/3/3
f 150/2/3 147/2/3 146/2/3
f 150/9/3 146/9/3 149/9/3
f 151/7/3 133/7/3 145/7/3
f 151/4/3 145/4/3 144/4/3
f 152/4/3 134/4/3 133/4/3
f 152/7/3 133/7/3 151/7/3
f 153/1/3 149/1/3 148/1/3
f 153/1/3 150/1/3 149/1/3
f 154/2/3 147/2/3 150/2/3
f 154/1/3 150/1/3 153/1/3
f 155/3/3 143/3/3 147/3/3
f 155/2/3 147/2/3 154/2/3
f 156/1/3 144/1/3 143/1/3
f 156/3/3 143/3/3 155/3/3
f 157/4/3 134/4/3 152/4/3
f 157/4/3 152/4/3 151/4/3
f 158/4/3 134/4/3 157/4/3
f 159/4/3 151/4/3 144/4/3
f 159/4/3 157/4/3 151/4/3
f 160/8/3 158/8/3 157/8/3
f 160/4/3 157/4/3 159/4/3
f 161/1/3 153/1/3 148/1/3
f 161/1/3 148/1/3 120/1/3
f 162/3/3 154/3/3 153/3/3
f 162/1/3 153/1/3 161/1/3
f 162/3/3 155/3/3 154/3/3
f 163/3/3 155/3/3 162/3/3
f 164/9/3 156/9/3 155/9/3
f 164/3/3 155/3/3 163/3/3
f 165/1/3 144/1/3 156/1/3
f 165/9/3 156/9/3 164/9/3
f 166/4/3 159/4/3 144/4/3
f 166/1/3 144/1/3 165/1/3
f 167/8/3 160/8/3 159/8/3
f 167/4/3 159/4/3 166/4/3
f 168/8/3 160/8/3 167/8/3
f 169/8/3 158/8/3 160/8/3
f 169/8/3 160/8/3 168/8/3
f 170/3/3 163/3/3 162/3/3
f 170/3/3 162/3/3 161/3/3
f 171/1/3 164/1/3 163/1/3
f 171/3/3 163/3/3 170/3/3
f 171/1/3 165/1/3 164/1/3
f 171/1/3 166/1/3 165/1/3
f 172/8/3 167/8/3 166/8/3
f 172/1/3 166/1/3 171/1/3
f 172/8/3 168/8/3 167/8/3
f 173/4/3 169/4/3 168/4/3
f 173/8/3 168/8/3 172/8/3
f 174/8/3 158/8/3 169/8/3
f 174/4/3 169/4/3 173/4/3
f 175/8/3 158/8/3 174/8/3
f 177/3/4 178/3/4 181/3/4
f 178/1/4 179/1/4 181/1/4
f 181/1/4 179/1/4 182/1/4
f 179/4/4 180/4/4 183/4/4
f 183/4/4 180/4/4 184/4/4
f 181/3/4 182/3/4 185/3/4
f 185/3/4 182/3/4 186/3/4
f 176/1/4 177/1/4 187/1/4
f 177/3/4 181/3/4 187/3/4
f 181/3/4 185/3/4 187/3/4
f 187/3/4 185/3/4 188/3/4
f 185/9/4 186/9/4 189/9/4
f 188/3/4 185/3/4 189/3/4
f 186/3/4 182/3/4 190/3/4
f 189/9/4 186/9/4 190/9/4
f 184/4/4 180/4/4 191/4/4
f 183/8/4 184/8/4 191/8/4
f 191/4/4 180/4/4 192/4/4
f 188/3/4 189/3/4 193/3/4
f 189/3/4 190/3/4 193/3/4
f 190/3/4 182/3/4 194/3/4
f 193/3/4 190/3/4 194/3/4
f 179/4/4 183/4/4 195/4/4
f 191/8/4 192/8/4 195/8/4
f 183/8/4 191/8/4 195/8/4
f 195/8/4 192/8/4 196/8/4
f 192/4/4 180/4/4 197/4/4
f 196/8/4 192/8/4 197/8/4
f 197/4/4 180/4/4 198/4/4
f 196/8/4 197/8/4 199/8/4
f 197/8/4 198/8/4 199/8/4
f 199/8/4 198/8/4 200/8/4
f 187/1/4 188/1/4 201/1/4
f 188/3/4 193/3/4 201/3/4
f 193/2/4 194/2/4 202/2/4
f 201/3/4 193/3/4 202/3/4
f 182/1/4 179/1/4 203/1/4
f 194/3/4 182/3/4 203/3/4
f 203/1/4 179/1/4 204/1/4
f 199/4/4 200/4/4 205/4/4
f 196/8/4 199/8/4 205/8/4
f 200/8/4 198/8/4 206/8/4
f 205/4/4 200/4/4 206/4/4
f 202/2/4 194/2/4 207/2/4
f 201/9/4 202/9/4 207/9/4
f 203/3/4 204/3/4 208/3/4
f 207/2/4 194/2/4 208/2/4
f 194/3/4 203/3/4 208/3/4
f 206/8/4 198/8/4 209/8/4
f 205/8/4 206/8/4 209/8/4
f 209/8/4 198/8/4 210/8/4
f 187/1/4 201/1/4 211/1/4
f 201/9/4 207/9/4 211/9/4
f 207/3/4 208/3/4 212/3/4
f 211/9/4 207/9/4 212/9/4
f 195/4/4 196/4/4 213/4/4
f 204/1/4 179/1/4 213/1/4
f 179/4/4 195/4/4 213/4/4
f 196/8/4 205/8/4 214/8/4
f 213/4/4 196/4/4 214/4/4
f 205/8/4 209/8/4 214/8/4
f 204/1/4 213/1/4 215/1/4
f 213/8/4 214/8/4 215/8/4
f 214/8/4 209/8/4 216/8/4
f 215/8/4 214/8/4 216/8/4
f 209/4/4 210/4/4 216/4/4
f 212/3/4 208/3/4 217/3/4
f 208/3/4 204/3/4 217/3/4
f 204/1/4 215/1/4 218/1/4
f 217/3/4 204/3/4 218/3/4
f 218/1/4 215/1/4 219/1/4
f 211/1/4 212/1/4 220/1/4
f 187/1/4 211/1/4 220/1/4
f 212/3/4 217/3/4 221/3/4
f 220/1/4 212/1/4 221/1/4
f 218/3/4 219/3/4 222/3/4
f 217/9/4 218/9/4 222/9/4
f 219/1/4 215/1/4 223/1/4
f 222/3/4 219/3/4 223/3/4
f 216/4/4 210/4/4 224/4/4
f 215/4/4 216/4/4 224/4/4
f 224/4/4 210/4/4 225/4/4
f 217/9/4 222/9/4 226/9/4
f 221/3/4 217/3/4 226/3/4
f 220/3/4 221/3/4 226/3/4
f 222/2/4 223/2/4 227/2/4
f 226/9/4 222/9/4 227/9/4
f 220/3/4 226/3/4 228/3/4
f 226/3/4 227/3/4 228/3/4
f 227/2/4 223/2/4 229/2/4
f 228/3/4 227/3/4 229/3/4
f 223/1/4 215/1/4 230/1/4
f 229/2/4 223/2/4 230/2/4
f 215/4/4 224/4/4 231/4/4
f 224/7/4 225/7/4 232/7/4
f 231/4/4 224/4/4 232/4/4
f 220/3/4 228/3/4 233/3/4
f 187/1/4 220/1/4 233/1/4
f 228/1/4 229/1/4 234/1/4
f 233/3/4 228/3/4 234/3/4
f 229/1/4 230/1/4 234/1/4
f 232/7/4 225/7/4 235/7/4
f 231/7/4 232/7/4 235/7/4
f 235/7/4 225/7/4 236/7/4
f 187/1/4 233/1/4 237/1/4
f 233/1/4 234/1/4 237/1/4
f 176/1/4 187/1/4 237/1/4
f 237/1/4 234/1/4 238/1/4
f 234/1/4 230/1/4 239/1/4
f 238/1/4 234/1/4 239/1/4
f 215/4/4 231/4/4 240/4/4
f 239/1/4 230/1/4 240/1/4
f 230/1/4 215/1/4 240/1/4
f 231/7/4 235/7/4 241/7/4
f 240/4/4 231/4/4 241/4/4
f 237/3/4 238/3/4 242/3/4
f 238/9/4 239/9/4 243/9/4
f 242/3/4 238/3/4 243/3/4
f 239/1/4 240/1/4 244/1/4
f 243/9/4 239/9/4 244/9/4
f 240/7/4 241/7/4 245/7/4
f 244/1/4 240/1/4 245/1/4
f 241/7/4 235/7/4 246/7/4
f 245/7/4 241/7/4 246/7/4
f 235/4/4 236/4/4 246/4/4
f 246/4/4 236/4/4 247/4/4
f 251/1/5 249/1/5 248/1/5
f 251/3/5 250/3/5 249/3/5
f 252/3/5 250/3/5 251/3/5
f 253/1/5 251/1/5 248/1/5
f 254/1/5 251/1/5 253/1/5
f 255/3/5 254/3/5 253/3/5
f 256/1/5 251/1/5 254/1/5
f 256/3/5 254/3/5 255/3/5
f 257/9/5 256/9/5 255/9/5
f 258/1/5 251/1/5 256/1/5
f 258/9/5 256/9/5 257/9/5
f 259/9/5 252/9/5 251/9/5
f 259/1/5 251/1/5 258/1/5
f 260/9/5 252/9/5 259/9/5
f 261/1/5 258/1/5 257/1/5
f 261/1/5 259/1/5 258/1/5
f 261/3/5 260/3/5 259/3/5
f 262/3/5 260/3/5 261/3/5
f 263/1/5 261/1/5 257/1/5
f 263/1/5 262/1/5 261/1/5
f 264/1/5 262/1/5 263/1/5
f 265/1/5 263/1/5 257/1/5
f 266/3/5 264/3/5 263/3/5
f 266/1/5 263/1/5 265/1/5
f 267/3/5 264/3/5 266/3/5
f 270/4/6 271/4/6 273/4/6
f 271/8/6 272/8/6 274/8/6
f 273/4/6 271/4/6 274/4/6
f 268/4/6 269/4/6 275/4/6
f 269/7/6 270/7/6 276/7/6
f 275/4/6 269/4/6 276/4/6
f 270/4/6 273/4/6 277/4/6
f 276/7/6 270/7/6 277/7/6
f 273/6/6 274/6/6 278/6/6
f 277/4/6 273/4/6 278/4/6
f 275/5/6 276/5/6 279/5/6
f 276/7/6 277/7/6 279/7/6
f 277/5/6 278/5/6 280/5/6
f 279/7/6 277/7/6 280/7/6
f 274/8/6 272/8/6 281/8/6
f 278/6/6 274/6/6 281/6/6
f 281/8/6 272/8/6 282/8/6
f 282/8/6 272/8/6 283/8/6
f 268/4/6 275/4/6 284/4/6
f 279/5/6 280/5/6 285/5/6
f 284/4/6 275/4/6 285/4/6
f 275/5/6 279/5/6 285/5/6
f 285/5/6 280/5/6 286/5/6
f 282/4/6 283/4/6 287/4/6
f 281/6/6 282/6/6 287/6/6
f 287/4/6 283/4/6 288/4/6
f 286/5/6 280/5/6 289/5/6
f 285/8/6 286/8/6 289/8/6
f 284/8/6 285/8/6 289/8/6
f 280/5/6 278/5/6 290/5/6
f 289/5/6 280/5/6 290/5/6
f 278/6/6 281/6/6 291/6/6
f 290/5/6 278/5/6 291/5/6
f 281/6/6 287/6/6 291/6/6
f 291/6/6 287/6/6 292/6/6
f 291/7/6 292/7/6 293/7/6
f 292/6/6 287/6/6 293/6/6
f 287/5/6 288/5/6 294/5/6
f 293/6/6 287/6/6 294/6/6
f 289/6/6 290/6/6 295/6/6
f 290/5/6 291/5/6 295/5/6
f 291/7/6 293/7/6 296/7/6
f 295/5/6 291/5/6 296/5/6
f 296/7/6 293/7/6 297/7/6
f 293/5/6 294/5/6 298/5/6
f 297/7/6 293/7/6 298/7/6
f 288/4/6 283/4/6 299/4/6
f 298/5/6 294/5/6 299/5/6
f 294/5/6 288/5/6 299/5/6
f 299/4/6 283/4/6 300/4/6
f 295/4/6 296/4/6 301/4/6
f 289/6/6 295/6/6 301/6/6
f 296/7/6 297/7/6 302/7/6
f 301/4/6 296/4/6 302/4/6
f 302/7/6 297/7/6 303/7/6
f 297/8/6 298/8/6 304/8/6
f 303/7/6 297/7/6 304/7/6
f 299/8/6 300/8/6 304/8/6
f 298/8/6 299/8/6 304/8/6
f 284/8/6 289/8/6 305/8/6
f 268/4/6 284/4/6 305/4/6
f 305/8/6 289/8/6 306/8/6
f 302/6/6 303/6/6 307/6/6
f 306/8/6 289/8/6 307/8/6
f 301/6/6 302/6/6 307/6/6
f 289/6/6 301/6/6 307/6/6
f 304/8/6 300/8/6 308/8/6
f 303/4/6 304/4/6 308/4/6
f 308/8/6 300/8/6 309/8/6
f 309/8/6 300/8/6 310/8/6
f 305/4/6 306/4/6 311/4/6
f 268/4/6 305/4/6 311/4/6
f 311/4/6 306/4/6 312/4/6
f 306/6/6 307/6/6 313/6/6
f 312/4/6 306/4/6 313/4/6
f 307/6/6 303/6/6 314/6/6
f 313/6/6 307/6/6 314/6/6
f 312/4/6 313/4/6 315/4/6
f 311/6/6 312/6/6 315/6/6
f 313/4/6 314/4/6 315/4/6
f 314/6/6 303/6/6 316/6/6
f 315/4/6 314/4/6 316/4/6
f 303/4/6 308/4/6 317/4/6
f 308/5/6 309/5/6 318/5/6
f 317/4/6 308/4/6 318/4/6
f 318/5/6 309/5/6 319/5/6
f 315/5/6 316/5/6 320/5/6
f 316/6/6 303/6/6 321/6/6
f 320/5/6 316/5/6 321/5/6
f 321/6/6 303/6/6 322/6/6
f 319/5/6 309/5/6 323/5/6
f 317/7/6 318/7/6 323/7/6
f 318/7/6 319/7/6 323/7/6
f 309/4/6 310/4/6 324/4/6
f 323/5/6 309/5/6 324/5/6
f 311/6/6 315/6/6 325/6/6
f 325/6/6 315/6/6 326/6/6
f 315/5/6 320/5/6 327/5/6
f 326/6/6 315/6/6 327/6/6
f 322/6/6 303/6/6 328/6/6
f 321/7/6 322/7/6 328/7/6
f 320/7/6 321/7/6 328/7/6
f 303/4/6 317/4/6 329/4/6
f 328/6/6 303/6/6 329/6/6
f 327/5/6 320/5/6 330/5/6
f 326/5/6 327/5/6 330/5/6
f 320/7/6 328/7/6 331/7/6
f 330/5/6 320/5/6 331/5/6
f 331/7/6 328/7/6 332/7/6
f 328/4/6 329/4/6 333/4/6
f 332/7/6 328/7/6 333/7/6
f 325/4/6 326/4/6 334/4/6
f 326/5/6 330/5/6 334/5/6
f 330/8/6 331/8/6 335/8/6
f 334/5/6 330/5/6 335/5/6
f 331/5/6 332/5/6 336/5/6
f 335/8/6 331/8/6 336/8/6
f 332/4/6 333/4/6 337/4/6
f 336/5/6 332/5/6 337/5/6
f 334/4/6 335/4/6 338/4/6
f 325/4/6 334/4/6 338/4/6
f 335/8/6 336/8/6 339/8/6
f 338/4/6 335/4/6 339/4/6
f 336/4/6 337/4/6 340/4/6
f 339/8/6 336/8/6 340/8/6
f 317/7/6 323/7/6 341/7/6
f 340/4/6 337/4/6 341/4/6
f 333/4/6 329/4/6 341/4/6
f 329/4/6 317/4/6 341/4/6
f 337/4/6 333/4/6 341/4/6
f 323/4/6 324/4/6 342/4/6
f 341/7/6 323/7/6 342/7/6
f 324/4/6 310/4/6 343/4/6
f 342/4/6 324/4/6 343/4/6
