# MagicaVoxel @ Ephtracy

# group
o 

# material
mtllib untitled.mtl
usemtl palette

# normals
vn -1 0 0
vn 1 0 0
vn 0 0 1
vn 0 0 -1
vn 0 -1 0
vn 0 1 0

# texcoords
vt 0.0957031 0.5
vt 0.134766 0.5
vt 0.826172 0.5
vt 0.958984 0.5
vt 0.994141 0.5

# verts
v -0.6 0.6 0.4
v -0.6 0.6 -0.4
v -0.6 1.3 0.4
v -0.6 1.3 -0.4
v -0.5 0.5 0.5
v -0.5 0.5 -0.5
v -0.5 0.6 0.4
v -0.5 0.6 -0.4
v -0.5 1.3 0.4
v -0.5 1.3 -0.4
v -0.5 1.4 0.5
v -0.5 1.4 -0.5
v -0.4 0.1 0.6
v -0.4 0.1 0.3
v -0.4 0.1 -0.3
v -0.4 0.1 -0.5
v -0.4 0.2 0.6
v -0.4 0.2 0.5
v -0.4 0.4 0.5
v -0.4 0.4 0.3
v -0.4 0.4 -0.3
v -0.4 0.4 -0.5
v -0.4 0.6 0.6
v -0.4 0.6 0.5
v -0.4 0.6 -0.5
v -0.4 0.6 -0.6
v -0.4 1.3 0.6
v -0.4 1.3 0.5
v -0.4 1.3 -0.5
v -0.4 1.3 -0.6
v -0.4 1.4 0.4
v -0.4 1.4 -0.4
v -0.4 1.5 0.4
v -0.4 1.5 -0.4
v -0.3 0.1 0.3
v -0.3 0.1 0.2
v -0.3 0.1 -0.2
v -0.3 0.1 -0.3
v -0.3 0.1 -0.5
v -0.3 0.1 -0.6
v -0.3 0.2 0.6
v -0.3 0.2 0.5
v -0.3 0.4 0.6
v -0.3 0.4 0.5
v -0.3 0.4 0.3
v -0.3 0.4 0.2
v -0.3 0.4 -0.2
v -0.3 0.4 -0.3
v -0.3 0.4 -0.5
v -0.3 0.4 -0.6
v -0.3 0.5 0.5
v -0.3 0.5 0.3
v -0.3 0.5 -0.3
v -0.3 0.5 -0.5
v -0.3 0.7 0.7
v -0.3 0.7 0.6
v -0.3 0.7 -0.6
v -0.3 0.7 -0.7
v -0.3 1.2 0.7
v -0.3 1.2 0.6
v -0.3 1.2 -0.6
v -0.3 1.2 -0.7
v -0.3 1.5 0.3
v -0.3 1.5 -0.3
v -0.3 1.6 0.3
v -0.3 1.6 -0.3
v -0.2 0.1 0.2
v -0.2 0.1 0.1
v -0.2 0.1 -0.1
v -0.2 0.1 -0.2
v -0.2 0.3 0.1
v -0.2 0.3 -0.1
v -0.2 0.4 0.2
v -0.2 0.4 0.1
v -0.2 0.4 -0.1
v -0.2 0.4 -0.2
v 0.3 0.4 0.2
v 0.3 0.4 0.1
v 0.3 0.4 -0.1
v 0.3 0.4 -0.2
v 0.3 0.5 0.2
v 0.3 0.5 0.1
v 0.3 0.5 -0.1
v 0.3 0.5 -0.2
v 0.3 0.7 0.7
v 0.3 0.7 0.6
v 0.3 0.7 -0.6
v 0.3 0.7 -0.7
v 0.3 1.2 0.7
v 0.3 1.2 0.6
v 0.3 1.2 -0.6
v 0.3 1.2 -0.7
v 0.3 1.5 0.3
v 0.3 1.5 -0.3
v 0.3 1.6 0.3
v 0.3 1.6 -0.3
v 0.4 0.3 0.1
v 0.4 0.3 -0.1
v 0.4 0.4 0.1
v 0.4 0.4 -0.1
v 0.4 0.6 0.6
v 0.4 0.6 0.5
v 0.4 0.6 -0.5
v 0.4 0.6 -0.6
v 0.4 1.3 0.6
v 0.4 1.3 0.5
v 0.4 1.3 -0.5
v 0.4 1.3 -0.6
v 0.4 1.4 0.4
v 0.4 1.4 -0.4
v 0.4 1.5 0.4
v 0.4 1.5 -0.4
v 0.5 0.4 0.1
v 0.5 0.4 -0.1
v 0.5 0.5 0.1
v 0.5 0.5 -0.1
v 0.5 1.3 0.5
v 0.5 1.3 -0.5
v 0.5 1.4 0.5
v 0.5 1.4 -0.5
v 0.6 0.1 0.2
v 0.6 0.1 0.1
v 0.6 0.1 -0.1
v 0.6 0.1 -0.2
v 0.6 0.4 0.2
v 0.6 0.4 0.1
v 0.6 0.4 -0.1
v 0.6 0.4 -0.2
v 0.6 0.4 -0.3
v 0.6 0.5 0.5
v 0.6 0.5 0.2
v 0.6 0.5 0.1
v 0.6 0.5 -0.1
v 0.6 0.5 -0.2
v 0.6 0.5 -0.3
v 0.6 0.5 -0.5
v 0.6 0.6 0.5
v 0.6 0.6 0.2
v 0.6 0.6 0.1
v 0.6 0.6 -0.1
v 0.6 0.6 -0.2
v 0.6 0.6 -0.5
v 0.6 0.7 0.4
v 0.6 0.7 0.2
v 0.6 0.7 0.1
v 0.6 0.7 -0.1
v 0.6 0.7 -0.2
v 0.6 0.7 -0.4
v 0.6 0.8 0.4
v 0.6 0.8 0.2
v 0.6 0.8 -0.2
v 0.6 0.8 -0.4
v 0.6 1 0.4
v 0.6 1 0.2
v 0.6 1 -0.2
v 0.6 1 -0.4
v 0.6 1.1 0.4
v 0.6 1.1 0.2
v 0.6 1.1 -0.2
v 0.6 1.1 -0.4
v 0.6 1.3 0.5
v 0.6 1.3 -0.5
v 0.7 0.1 0.6
v 0.7 0.1 0.5
v 0.7 0.1 -0.2
v 0.7 0.1 -0.3
v 0.7 0.1 -0.5
v 0.7 0.1 -0.6
v 0.7 0.4 0.6
v 0.7 0.4 0.5
v 0.7 0.4 0.2
v 0.7 0.4 -0.2
v 0.7 0.4 -0.3
v 0.7 0.4 -0.5
v 0.7 0.4 -0.6
v 0.7 0.5 0.5
v 0.7 0.5 0.2
v 0.7 0.5 0.1
v 0.7 0.5 -0.1
v 0.7 0.5 -0.3
v 0.7 0.5 -0.5
v 0.7 0.6 0.2
v 0.7 0.6 0.1
v 0.7 0.6 -0.1
v 0.7 0.6 -0.2
v 0.7 0.7 0.4
v 0.7 0.7 0.2
v 0.7 0.7 0.1
v 0.7 0.7 -0.1
v 0.7 0.7 -0.2
v 0.7 0.7 -0.4
v 0.7 0.8 0.4
v 0.7 0.8 0.2
v 0.7 0.8 -0.2
v 0.7 0.8 -0.4
v 0.7 1 0.4
v 0.7 1 0.2
v 0.7 1 -0.2
v 0.7 1 -0.4
v 0.7 1.1 0.4
v 0.7 1.1 0.2
v 0.7 1.1 -0.2
v 0.7 1.1 -0.4
v 0.8 0.1 0.5
v 0.8 0.1 0.2
v 0.8 0.1 -0.3
v 0.8 0.1 -0.5
v 0.8 0.2 0.5
v 0.8 0.2 0.3
v 0.8 0.2 -0.3
v 0.8 0.2 -0.5
v 0.8 0.3 0.5
v 0.8 0.3 0.3
v 0.8 0.3 -0.3
v 0.8 0.3 -0.5
v 0.8 0.4 0.5
v 0.8 0.4 0.2
v 0.8 0.4 -0.3
v 0.8 0.4 -0.5
v 0.9 0.2 0.5
v 0.9 0.2 0.3
v 0.9 0.2 -0.3
v 0.9 0.2 -0.5
v 0.9 0.3 0.5
v 0.9 0.3 0.3
v 0.9 0.3 -0.3
v 0.9 0.3 -0.5
v -0.3 0.7 0.7
v -0.3 1.2 0.7
v 0.3 0.7 0.7
v 0.3 1.2 0.7
v -0.4 0.1 0.6
v -0.4 0.2 0.6
v -0.4 0.6 0.6
v -0.4 1.3 0.6
v -0.3 0.2 0.6
v -0.3 0.4 0.6
v -0.3 0.7 0.6
v -0.3 1.2 0.6
v 0.3 0.7 0.6
v 0.3 1.2 0.6
v 0.4 0.6 0.6
v 0.4 1.3 0.6
v 0.7 0.1 0.6
v 0.7 0.4 0.6
v -0.5 0.5 0.5
v -0.5 1.4 0.5
v -0.4 0.2 0.5
v -0.4 0.4 0.5
v -0.4 0.6 0.5
v -0.4 1.3 0.5
v -0.3 0.2 0.5
v -0.3 0.4 0.5
v -0.3 0.5 0.5
v 0.4 0.6 0.5
v 0.4 1.3 0.5
v 0.5 0.5 0.5
v 0.5 0.6 0.5
v 0.5 1.3 0.5
v 0.5 1.4 0.5
v 0.6 0.5 0.5
v 0.6 0.6 0.5
v 0.6 1.3 0.5
v 0.7 0.1 0.5
v 0.7 0.4 0.5
v 0.7 0.5 0.5
v 0.8 0.1 0.5
v 0.8 0.2 0.5
v 0.8 0.3 0.5
v 0.8 0.4 0.5
v 0.9 0.2 0.5
v 0.9 0.3 0.5
v -0.6 0.6 0.4
v -0.6 1.3 0.4
v -0.5 0.6 0.4
v -0.5 1.3 0.4
v -0.4 1.4 0.4
v -0.4 1.5 0.4
v 0.4 1.4 0.4
v 0.4 1.5 0.4
v 0.6 0.7 0.4
v 0.6 0.8 0.4
v 0.6 1 0.4
v 0.6 1.1 0.4
v 0.7 0.7 0.4
v 0.7 0.8 0.4
v 0.7 1 0.4
v 0.7 1.1 0.4
v -0.3 1.5 0.3
v -0.3 1.6 0.3
v 0.3 1.5 0.3
v 0.3 1.6 0.3
v 0.6 0.6 0.2
v 0.6 0.7 0.2
v 0.7 0.6 0.2
v 0.7 0.7 0.2
v 0.3 0.4 0.1
v 0.3 0.5 0.1
v 0.5 0.4 0.1
v 0.5 0.5 0.1
v 0.6 0.5 0.1
v 0.6 0.6 0.1
v 0.7 0.5 0.1
v 0.7 0.6 0.1
v -0.2 0.1 -0.1
v -0.2 0.3 -0.1
v 0.4 0.3 -0.1
v 0.4 0.4 -0.1
v 0.5 0.4 -0.1
v 0.6 0.1 -0.1
v 0.6 0.4 -0.1
v 0.6 0.6 -0.1
v 0.6 0.7 -0.1
v 0.7 0.6 -0.1
v 0.7 0.7 -0.1
v -0.3 0.1 -0.2
v -0.3 0.4 -0.2
v -0.2 0.1 -0.2
v -0.2 0.4 -0.2
v 0.3 0.4 -0.2
v 0.3 0.5 -0.2
v 0.6 0.1 -0.2
v 0.6 0.4 -0.2
v 0.6 0.5 -0.2
v 0.6 0.7 -0.2
v 0.6 0.8 -0.2
v 0.6 1 -0.2
v 0.6 1.1 -0.2
v 0.7 0.1 -0.2
v 0.7 0.4 -0.2
v 0.7 0.7 -0.2
v 0.7 0.8 -0.2
v 0.7 1 -0.2
v 0.7 1.1 -0.2
v -0.4 0.1 -0.3
v -0.4 0.4 -0.3
v -0.3 0.1 -0.3
v -0.3 0.4 -0.3
v 0.6 0.4 -0.3
v 0.6 0.5 -0.3
v 0.7 0.1 -0.3
v 0.7 0.4 -0.3
v 0.7 0.5 -0.3
v 0.8 0.1 -0.3
v 0.8 0.2 -0.3
v 0.8 0.3 -0.3
v 0.8 0.4 -0.3
v 0.9 0.2 -0.3
v 0.9 0.3 -0.3
v -0.4 0.1 0.3
v -0.4 0.4 0.3
v -0.3 0.1 0.3
v -0.3 0.4 0.3
v 0.8 0.2 0.3
v 0.8 0.3 0.3
v 0.9 0.2 0.3
v 0.9 0.3 0.3
v -0.3 0.1 0.2
v -0.3 0.4 0.2
v -0.2 0.1 0.2
v -0.2 0.4 0.2
v 0.3 0.4 0.2
v 0.3 0.5 0.2
v 0.6 0.1 0.2
v 0.6 0.4 0.2
v 0.6 0.5 0.2
v 0.6 0.7 0.2
v 0.6 0.8 0.2
v 0.6 1 0.2
v 0.6 1.1 0.2
v 0.7 0.4 0.2
v 0.7 0.5 0.2
v 0.7 0.7 0.2
v 0.7 0.8 0.2
v 0.7 1 0.2
v 0.7 1.1 0.2
v 0.8 0.1 0.2
v 0.8 0.4 0.2
v -0.2 0.1 0.1
v -0.2 0.3 0.1
v 0.4 0.3 0.1
v 0.4 0.4 0.1
v 0.5 0.4 0.1
v 0.6 0.1 0.1
v 0.6 0.4 0.1
v 0.6 0.6 0.1
v 0.6 0.7 0.1
v 0.7 0.6 0.1
v 0.7 0.7 0.1
v 0.3 0.4 -0.1
v 0.3 0.5 -0.1
v 0.5 0.4 -0.1
v 0.5 0.5 -0.1
v 0.6 0.5 -0.1
v 0.6 0.6 -0.1
v 0.7 0.5 -0.1
v 0.7 0.6 -0.1
v 0.6 0.6 -0.2
v 0.6 0.7 -0.2
v 0.7 0.6 -0.2
v 0.7 0.7 -0.2
v -0.3 1.5 -0.3
v -0.3 1.6 -0.3
v 0.3 1.5 -0.3
v 0.3 1.6 -0.3
v -0.6 0.6 -0.4
v -0.6 1.3 -0.4
v -0.5 0.6 -0.4
v -0.5 1.3 -0.4
v -0.4 1.4 -0.4
v -0.4 1.5 -0.4
v 0.4 1.4 -0.4
v 0.4 1.5 -0.4
v 0.6 0.7 -0.4
v 0.6 0.8 -0.4
v 0.6 1 -0.4
v 0.6 1.1 -0.4
v 0.7 0.7 -0.4
v 0.7 0.8 -0.4
v 0.7 1 -0.4
v 0.7 1.1 -0.4
v -0.5 0.5 -0.5
v -0.5 1.4 -0.5
v -0.4 0.1 -0.5
v -0.4 0.4 -0.5
v -0.4 0.6 -0.5
v -0.4 1.3 -0.5
v -0.3 0.1 -0.5
v -0.3 0.4 -0.5
v -0.3 0.5 -0.5
v 0.4 0.5 -0.5
v 0.4 0.6 -0.5
v 0.4 1.3 -0.5
v 0.5 1.3 -0.5
v 0.5 1.4 -0.5
v 0.6 0.5 -0.5
v 0.6 0.6 -0.5
v 0.6 1.3 -0.5
v 0.7 0.1 -0.5
v 0.7 0.4 -0.5
v 0.7 0.5 -0.5
v 0.8 0.1 -0.5
v 0.8 0.2 -0.5
v 0.8 0.3 -0.5
v 0.8 0.4 -0.5
v 0.9 0.2 -0.5
v 0.9 0.3 -0.5
v -0.4 0.6 -0.6
v -0.4 1.3 -0.6
v -0.3 0.1 -0.6
v -0.3 0.4 -0.6
v -0.3 0.7 -0.6
v -0.3 1.2 -0.6
v 0.3 0.7 -0.6
v 0.3 1.2 -0.6
v 0.4 0.6 -0.6
v 0.4 1.3 -0.6
v 0.7 0.1 -0.6
v 0.7 0.4 -0.6
v -0.3 0.7 -0.7
v -0.3 1.2 -0.7
v 0.3 0.7 -0.7
v 0.3 1.2 -0.7
v -0.4 0.1 0.6
v 0.7 0.1 0.6
v 0.7 0.1 0.5
v 0.8 0.1 0.5
v -0.4 0.1 0.3
v -0.3 0.1 0.3
v -0.3 0.1 0.2
v -0.2 0.1 0.2
v 0.6 0.1 0.2
v 0.8 0.1 0.2
v -0.2 0.1 0.1
v 0.6 0.1 0.1
v -0.2 0.1 -0.1
v 0.6 0.1 -0.1
v -0.3 0.1 -0.2
v -0.2 0.1 -0.2
v 0.6 0.1 -0.2
v 0.7 0.1 -0.2
v -0.4 0.1 -0.3
v -0.3 0.1 -0.3
v 0.7 0.1 -0.3
v 0.8 0.1 -0.3
v -0.4 0.1 -0.5
v -0.3 0.1 -0.5
v 0.7 0.1 -0.5
v 0.8 0.1 -0.5
v -0.3 0.1 -0.6
v 0.7 0.1 -0.6
v 0.8 0.2 0.5
v 0.9 0.2 0.5
v 0.8 0.2 0.3
v 0.9 0.2 0.3
v 0.8 0.2 -0.3
v 0.9 0.2 -0.3
v 0.8 0.2 -0.5
v 0.9 0.2 -0.5
v -0.2 0.3 0.1
v 0.4 0.3 0.1
v -0.2 0.3 -0.1
v 0.4 0.3 -0.1
v -0.3 0.4 0.2
v -0.2 0.4 0.2
v -0.2 0.4 0.1
v 0.4 0.4 0.1
v 0.5 0.4 0.1
v -0.2 0.4 -0.1
v 0.4 0.4 -0.1
v 0.5 0.4 -0.1
v -0.3 0.4 -0.2
v -0.2 0.4 -0.2
v -0.5 0.5 0.5
v -0.3 0.5 0.5
v -0.3 0.5 0.3
v 0.3 0.5 0.2
v 0.6 0.5 0.2
v 0.3 0.5 0.1
v 0.5 0.5 0.1
v 0.6 0.5 0.1
v 0.7 0.5 0.1
v 0.3 0.5 -0.1
v 0.5 0.5 -0.1
v 0.6 0.5 -0.1
v 0.7 0.5 -0.1
v 0.3 0.5 -0.2
v 0.6 0.5 -0.2
v -0.3 0.5 -0.3
v -0.5 0.5 -0.5
v -0.3 0.5 -0.5
v -0.4 0.6 0.6
v 0.4 0.6 0.6
v -0.4 0.6 0.5
v 0.4 0.6 0.5
v -0.6 0.6 0.4
v -0.5 0.6 0.4
v 0.6 0.6 0.2
v 0.7 0.6 0.2
v 0.6 0.6 0.1
v 0.7 0.6 0.1
v 0.6 0.6 -0.1
v 0.7 0.6 -0.1
v 0.6 0.6 -0.2
v 0.7 0.6 -0.2
v -0.6 0.6 -0.4
v -0.5 0.6 -0.4
v -0.4 0.6 -0.5
v 0.4 0.6 -0.5
v -0.4 0.6 -0.6
v 0.4 0.6 -0.6
v -0.3 0.7 0.7
v 0.3 0.7 0.7
v -0.3 0.7 0.6
v 0.3 0.7 0.6
v 0.6 0.7 0.4
v 0.7 0.7 0.4
v 0.6 0.7 0.2
v 0.7 0.7 0.2
v 0.6 0.7 -0.2
v 0.7 0.7 -0.2
v 0.6 0.7 -0.4
v 0.7 0.7 -0.4
v -0.3 0.7 -0.6
v 0.3 0.7 -0.6
v -0.3 0.7 -0.7
v 0.3 0.7 -0.7
v -0.4 0.2 0.6
v -0.3 0.2 0.6
v -0.4 0.2 0.5
v -0.3 0.2 0.5
v 0.8 0.3 0.5
v 0.9 0.3 0.5
v 0.8 0.3 0.3
v 0.9 0.3 0.3
v 0.8 0.3 -0.3
v 0.9 0.3 -0.3
v 0.8 0.3 -0.5
v 0.9 0.3 -0.5
v -0.3 0.4 0.6
v 0.7 0.4 0.6
v -0.4 0.4 0.5
v -0.3 0.4 0.5
v 0.7 0.4 0.5
v 0.8 0.4 0.5
v -0.4 0.4 0.3
v -0.3 0.4 0.3
v 0.3 0.4 0.2
v 0.6 0.4 0.2
v 0.7 0.4 0.2
v 0.8 0.4 0.2
v 0.3 0.4 0.1
v 0.5 0.4 0.1
v 0.6 0.4 0.1
v 0.3 0.4 -0.1
v 0.5 0.4 -0.1
v 0.6 0.4 -0.1
v 0.3 0.4 -0.2
v 0.6 0.4 -0.2
v 0.7 0.4 -0.2
v -0.4 0.4 -0.3
v -0.3 0.4 -0.3
v 0.6 0.4 -0.3
v 0.7 0.4 -0.3
v 0.8 0.4 -0.3
v -0.4 0.4 -0.5
v -0.3 0.4 -0.5
v 0.7 0.4 -0.5
v 0.8 0.4 -0.5
v -0.3 0.4 -0.6
v 0.7 0.4 -0.6
v 0.6 0.5 0.5
v 0.7 0.5 0.5
v 0.6 0.5 0.2
v 0.7 0.5 0.2
v 0.6 0.5 -0.3
v 0.7 0.5 -0.3
v 0.6 0.5 -0.5
v 0.7 0.5 -0.5
v 0.6 0.6 0.1
v 0.7 0.6 0.1
v 0.6 0.6 -0.1
v 0.7 0.6 -0.1
v 0.6 0.7 0.2
v 0.7 0.7 0.2
v 0.6 0.7 0.1
v 0.7 0.7 0.1
v 0.6 0.7 -0.1
v 0.7 0.7 -0.1
v 0.6 0.7 -0.2
v 0.7 0.7 -0.2
v 0.6 1.1 0.4
v 0.7 1.1 0.4
v 0.6 1.1 0.2
v 0.7 1.1 0.2
v 0.6 1.1 -0.2
v 0.7 1.1 -0.2
v 0.6 1.1 -0.4
v 0.7 1.1 -0.4
v -0.3 1.2 0.7
v 0.3 1.2 0.7
v -0.3 1.2 0.6
v 0.3 1.2 0.6
v -0.3 1.2 -0.6
v 0.3 1.2 -0.6
v -0.3 1.2 -0.7
v 0.3 1.2 -0.7
v -0.4 1.3 0.6
v 0.4 1.3 0.6
v -0.4 1.3 0.5
v 0.4 1.3 0.5
v 0.5 1.3 0.5
v 0.6 1.3 0.5
v -0.6 1.3 0.4
v -0.5 1.3 0.4
v -0.6 1.3 -0.4
v -0.5 1.3 -0.4
v -0.4 1.3 -0.5
v 0.4 1.3 -0.5
v 0.5 1.3 -0.5
v 0.6 1.3 -0.5
v -0.4 1.3 -0.6
v 0.4 1.3 -0.6
v -0.5 1.4 0.5
v 0.5 1.4 0.5
v -0.4 1.4 0.4
v 0.4 1.4 0.4
v -0.4 1.4 -0.4
v 0.4 1.4 -0.4
v -0.5 1.4 -0.5
v 0.5 1.4 -0.5
v -0.4 1.5 0.4
v 0.4 1.5 0.4
v -0.3 1.5 0.3
v 0.3 1.5 0.3
v -0.3 1.5 -0.3
v 0.3 1.5 -0.3
v -0.4 1.5 -0.4
v 0.4 1.5 -0.4
v -0.3 1.6 0.3
v 0.3 1.6 0.3
v -0.3 1.6 -0.3
v 0.3 1.6 -0.3

# faces
f 3/1/1 2/1/1 1/1/1
f 4/1/1 2/1/1 3/1/1
f 7/1/1 6/1/1 5/1/1
f 8/1/1 6/1/1 7/1/1
f 9/1/1 7/1/1 5/1/1
f 10/1/1 6/1/1 8/1/1
f 11/1/1 9/1/1 5/1/1
f 11/1/1 10/1/1 9/1/1
f 12/1/1 6/1/1 10/1/1
f 12/1/1 10/1/1 11/1/1
f 17/2/1 14/2/1 13/2/1
f 18/2/1 14/2/1 17/2/1
f 19/2/1 14/2/1 18/2/1
f 20/2/1 14/2/1 19/2/1
f 21/2/1 16/2/1 15/2/1
f 22/2/1 16/2/1 21/2/1
f 27/1/1 24/1/1 23/1/1
f 28/1/1 24/1/1 27/1/1
f 29/1/1 26/1/1 25/1/1
f 30/1/1 26/1/1 29/1/1
f 33/1/1 32/1/1 31/1/1
f 34/1/1 32/1/1 33/1/1
f 43/2/1 42/2/1 41/2/1
f 44/2/1 42/2/1 43/2/1
f 45/2/1 36/2/1 35/2/1
f 46/2/1 36/2/1 45/2/1
f 47/2/1 38/2/1 37/2/1
f 48/2/1 38/2/1 47/2/1
f 49/2/1 40/2/1 39/2/1
f 50/2/1 40/2/1 49/2/1
f 51/2/1 45/2/1 44/2/1
f 52/1/1 46/1/1 45/1/1
f 52/2/1 45/2/1 51/2/1
f 52/1/1 48/1/1 47/1/1
f 52/1/1 47/1/1 46/1/1
f 53/2/1 49/2/1 48/2/1
f 53/1/1 48/1/1 52/1/1
f 54/2/1 49/2/1 53/2/1
f 59/1/1 56/1/1 55/1/1
f 60/1/1 56/1/1 59/1/1
f 61/1/1 58/1/1 57/1/1
f 62/1/1 58/1/1 61/1/1
f 65/1/1 64/1/1 63/1/1
f 66/1/1 64/1/1 65/1/1
f 71/2/1 68/2/1 67/2/1
f 72/2/1 70/2/1 69/2/1
f 73/2/1 71/2/1 67/2/1
f 74/1/1 72/1/1 71/1/1
f 74/2/1 71/2/1 73/2/1
f 75/2/1 70/2/1 72/2/1
f 75/1/1 72/1/1 74/1/1
f 76/2/1 70/2/1 75/2/1
f 77/1/2 78/1/2 81/1/2
f 81/1/2 78/1/2 82/1/2
f 79/1/2 80/1/2 83/1/2
f 83/1/2 80/1/2 84/1/2
f 85/1/2 86/1/2 89/1/2
f 89/1/2 86/1/2 90/1/2
f 87/1/2 88/1/2 91/1/2
f 91/1/2 88/1/2 92/1/2
f 93/1/2 94/1/2 95/1/2
f 95/1/2 94/1/2 96/1/2
f 97/1/2 98/1/2 99/1/2
f 99/1/2 98/1/2 100/1/2
f 101/1/2 102/1/2 105/1/2
f 105/1/2 102/1/2 106/1/2
f 103/1/2 104/1/2 107/1/2
f 107/1/2 104/1/2 108/1/2
f 109/1/2 110/1/2 111/1/2
f 111/1/2 110/1/2 112/1/2
f 113/1/2 114/1/2 115/1/2
f 115/1/2 114/1/2 116/1/2
f 117/1/2 118/1/2 119/1/2
f 119/1/2 118/1/2 120/1/2
f 121/2/2 122/2/2 125/2/2
f 125/2/2 122/2/2 126/2/2
f 123/2/2 124/2/2 127/2/2
f 127/2/2 124/2/2 128/2/2
f 128/2/2 129/2/2 134/2/2
f 134/2/2 129/2/2 135/2/2
f 130/2/2 131/2/2 137/2/2
f 131/1/2 132/1/2 138/1/2
f 137/2/2 131/2/2 138/2/2
f 138/1/2 132/1/2 139/1/2
f 133/1/2 134/1/2 140/1/2
f 135/2/2 136/2/2 141/2/2
f 134/2/2 135/2/2 141/2/2
f 140/1/2 134/1/2 141/1/2
f 141/2/2 136/2/2 142/2/2
f 137/1/2 138/1/2 143/1/2
f 143/1/2 138/1/2 144/1/2
f 139/1/2 140/1/2 145/1/2
f 145/1/2 140/1/2 146/1/2
f 141/1/2 142/1/2 147/1/2
f 147/1/2 142/1/2 148/1/2
f 137/1/2 143/1/2 149/1/2
f 145/1/2 146/1/2 150/1/2
f 146/1/2 147/1/2 150/1/2
f 144/1/2 145/1/2 150/1/2
f 150/1/2 147/1/2 151/1/2
f 148/1/2 142/1/2 152/1/2
f 137/1/2 149/1/2 153/1/2
f 150/1/2 151/1/2 154/1/2
f 154/1/2 151/1/2 155/1/2
f 152/1/2 142/1/2 156/1/2
f 137/1/2 153/1/2 157/1/2
f 154/1/2 155/1/2 158/1/2
f 158/1/2 155/1/2 159/1/2
f 156/1/2 142/1/2 160/1/2
f 158/1/2 159/1/2 161/1/2
f 159/1/2 160/1/2 161/1/2
f 137/1/2 157/1/2 161/1/2
f 157/1/2 158/1/2 161/1/2
f 160/1/2 142/1/2 162/1/2
f 161/1/2 160/1/2 162/1/2
f 163/2/2 164/2/2 169/2/2
f 169/2/2 164/2/2 170/2/2
f 165/2/2 166/2/2 172/2/2
f 172/2/2 166/2/2 173/2/2
f 167/2/2 168/2/2 174/2/2
f 174/2/2 168/2/2 175/2/2
f 170/2/2 171/2/2 176/2/2
f 176/2/2 171/2/2 177/2/2
f 173/2/2 174/2/2 180/2/2
f 180/2/2 174/2/2 181/2/2
f 178/5/2 179/5/2 183/5/2
f 183/5/2 179/5/2 184/5/2
f 182/5/2 183/5/2 187/5/2
f 187/5/2 183/5/2 188/5/2
f 184/5/2 185/5/2 189/5/2
f 189/5/2 185/5/2 190/5/2
f 186/3/2 187/3/2 192/3/2
f 192/3/2 187/3/2 193/3/2
f 190/3/2 191/3/2 194/3/2
f 194/3/2 191/3/2 195/3/2
f 192/5/2 193/5/2 196/5/2
f 196/5/2 193/5/2 197/5/2
f 194/5/2 195/5/2 198/5/2
f 198/5/2 195/5/2 199/5/2
f 196/4/2 197/4/2 200/4/2
f 200/4/2 197/4/2 201/4/2
f 198/4/2 199/4/2 202/4/2
f 202/4/2 199/4/2 203/4/2
f 204/2/2 205/2/2 208/2/2
f 208/2/2 205/2/2 209/2/2
f 206/2/2 207/2/2 210/2/2
f 210/2/2 207/2/2 211/2/2
f 209/2/2 205/2/2 213/2/2
f 212/2/2 213/2/2 216/2/2
f 213/2/2 205/2/2 217/2/2
f 216/2/2 213/2/2 217/2/2
f 214/2/2 215/2/2 218/2/2
f 218/2/2 215/2/2 219/2/2
f 220/2/2 221/2/2 224/2/2
f 224/2/2 221/2/2 225/2/2
f 222/2/2 223/2/2 226/2/2
f 226/2/2 223/2/2 227/2/2
f 230/1/3 229/1/3 228/1/3
f 231/1/3 229/1/3 230/1/3
f 236/2/3 233/2/3 232/2/3
f 238/1/3 235/1/3 234/1/3
f 239/1/3 235/1/3 238/1/3
f 240/1/3 238/1/3 234/1/3
f 241/1/3 235/1/3 239/1/3
f 242/1/3 240/1/3 234/1/3
f 242/1/3 241/1/3 240/1/3
f 243/1/3 235/1/3 241/1/3
f 243/1/3 241/1/3 242/1/3
f 244/2/3 237/2/3 236/2/3
f 244/2/3 236/2/3 232/2/3
f 245/2/3 237/2/3 244/2/3
f 250/1/3 247/1/3 246/1/3
f 251/1/3 247/1/3 250/1/3
f 252/2/3 249/2/3 248/2/3
f 253/2/3 249/2/3 252/2/3
f 254/1/3 250/1/3 246/1/3
f 255/1/3 250/1/3 254/1/3
f 256/1/3 247/1/3 251/1/3
f 257/1/3 255/1/3 254/1/3
f 257/1/3 256/1/3 255/1/3
f 257/2/3 254/2/3 253/2/3
f 258/1/3 256/1/3 257/1/3
f 259/1/3 247/1/3 256/1/3
f 259/1/3 256/1/3 258/1/3
f 260/1/3 247/1/3 259/1/3
f 261/2/3 258/2/3 257/2/3
f 261/2/3 257/2/3 253/2/3
f 262/1/3 259/1/3 258/1/3
f 262/2/3 258/2/3 261/2/3
f 263/1/3 259/1/3 262/1/3
f 265/2/3 261/2/3 253/2/3
f 266/2/3 261/2/3 265/2/3
f 267/2/3 265/2/3 264/2/3
f 268/2/3 265/2/3 267/2/3
f 269/2/3 265/2/3 268/2/3
f 270/2/3 265/2/3 269/2/3
f 271/2/3 269/2/3 268/2/3
f 272/2/3 269/2/3 271/2/3
f 275/1/3 274/1/3 273/1/3
f 276/1/3 274/1/3 275/1/3
f 279/1/3 278/1/3 277/1/3
f 280/1/3 278/1/3 279/1/3
f 285/3/3 282/3/3 281/3/3
f 286/5/3 283/5/3 282/5/3
f 286/3/3 282/3/3 285/3/3
f 287/4/3 284/4/3 283/4/3
f 287/5/3 283/5/3 286/5/3
f 288/4/3 284/4/3 287/4/3
f 291/1/3 290/1/3 289/1/3
f 292/1/3 290/1/3 291/1/3
f 295/5/3 294/5/3 293/5/3
f 296/5/3 294/5/3 295/5/3
f 299/1/3 298/1/3 297/1/3
f 300/1/3 298/1/3 299/1/3
f 303/5/3 302/5/3 301/5/3
f 304/5/3 302/5/3 303/5/3
f 307/2/3 306/2/3 305/2/3
f 309/2/3 308/2/3 307/2/3
f 310/2/3 307/2/3 305/2/3
f 310/2/3 309/2/3 307/2/3
f 311/2/3 309/2/3 310/2/3
f 314/5/3 313/5/3 312/5/3
f 315/5/3 313/5/3 314/5/3
f 318/2/3 317/2/3 316/2/3
f 319/2/3 317/2/3 318/2/3
f 323/2/3 321/2/3 320/2/3
f 324/2/3 321/2/3 323/2/3
f 329/2/3 323/2/3 322/2/3
f 330/2/3 323/2/3 329/2/3
f 331/3/3 326/3/3 325/3/3
f 332/5/3 327/5/3 326/5/3
f 332/3/3 326/3/3 331/3/3
f 333/4/3 328/4/3 327/4/3
f 333/5/3 327/5/3 332/5/3
f 334/4/3 328/4/3 333/4/3
f 337/2/3 336/2/3 335/2/3
f 338/2/3 336/2/3 337/2/3
f 342/2/3 340/2/3 339/2/3
f 343/2/3 340/2/3 342/2/3
f 344/2/3 342/2/3 341/2/3
f 345/2/3 342/2/3 344/2/3
f 346/2/3 342/2/3 345/2/3
f 347/2/3 342/2/3 346/2/3
f 348/2/3 346/2/3 345/2/3
f 349/2/3 346/2/3 348/2/3
f 350/2/4 351/2/4 352/2/4
f 352/2/4 351/2/4 353/2/4
f 354/2/4 355/2/4 356/2/4
f 356/2/4 355/2/4 357/2/4
f 358/2/4 359/2/4 360/2/4
f 360/2/4 359/2/4 361/2/4
f 362/2/4 363/2/4 365/2/4
f 365/2/4 363/2/4 366/2/4
f 364/2/4 365/2/4 371/2/4
f 365/2/4 366/2/4 371/2/4
f 371/2/4 366/2/4 372/2/4
f 367/3/4 368/3/4 373/3/4
f 368/5/4 369/5/4 374/5/4
f 373/3/4 368/3/4 374/3/4
f 369/4/4 370/4/4 375/4/4
f 374/5/4 369/5/4 375/5/4
f 375/4/4 370/4/4 376/4/4
f 364/2/4 371/2/4 377/2/4
f 377/2/4 371/2/4 378/2/4
f 379/2/4 380/2/4 381/2/4
f 381/2/4 382/2/4 383/2/4
f 379/2/4 381/2/4 384/2/4
f 381/2/4 383/2/4 384/2/4
f 384/2/4 383/2/4 385/2/4
f 386/5/4 387/5/4 388/5/4
f 388/5/4 387/5/4 389/5/4
f 390/1/4 391/1/4 392/1/4
f 392/1/4 391/1/4 393/1/4
f 394/5/4 395/5/4 396/5/4
f 396/5/4 395/5/4 397/5/4
f 398/5/4 399/5/4 400/5/4
f 400/5/4 399/5/4 401/5/4
f 402/1/4 403/1/4 404/1/4
f 404/1/4 403/1/4 405/1/4
f 406/1/4 407/1/4 408/1/4
f 408/1/4 407/1/4 409/1/4
f 410/1/4 411/1/4 412/1/4
f 412/1/4 411/1/4 413/1/4
f 414/3/4 415/3/4 418/3/4
f 415/5/4 416/5/4 419/5/4
f 418/3/4 415/3/4 419/3/4
f 416/4/4 417/4/4 420/4/4
f 419/5/4 416/5/4 420/5/4
f 420/4/4 417/4/4 421/4/4
f 422/1/4 423/1/4 426/1/4
f 426/1/4 423/1/4 427/1/4
f 424/2/4 425/2/4 428/2/4
f 428/2/4 425/2/4 429/2/4
f 422/1/4 426/1/4 430/1/4
f 429/2/4 430/2/4 431/2/4
f 430/1/4 426/1/4 431/1/4
f 431/1/4 426/1/4 432/1/4
f 427/1/4 423/1/4 433/1/4
f 433/1/4 423/1/4 434/1/4
f 432/1/4 433/1/4 434/1/4
f 434/1/4 423/1/4 435/1/4
f 431/2/4 432/2/4 436/2/4
f 429/2/4 431/2/4 436/2/4
f 432/1/4 434/1/4 437/1/4
f 436/2/4 432/2/4 437/2/4
f 437/1/4 434/1/4 438/1/4
f 429/2/4 436/2/4 440/2/4
f 440/2/4 436/2/4 441/2/4
f 439/2/4 440/2/4 442/2/4
f 442/2/4 440/2/4 443/2/4
f 443/2/4 440/2/4 444/2/4
f 444/2/4 440/2/4 445/2/4
f 443/2/4 444/2/4 446/2/4
f 446/2/4 444/2/4 447/2/4
f 448/1/4 449/1/4 452/1/4
f 452/1/4 449/1/4 453/1/4
f 448/1/4 452/1/4 454/1/4
f 453/1/4 449/1/4 455/1/4
f 448/1/4 454/1/4 456/1/4
f 454/1/4 455/1/4 456/1/4
f 455/1/4 449/1/4 457/1/4
f 456/1/4 455/1/4 457/1/4
f 450/2/4 451/2/4 458/2/4
f 458/2/4 451/2/4 459/2/4
f 460/1/4 461/1/4 462/1/4
f 462/1/4 461/1/4 463/1/4
f 466/2/5 465/2/5 464/2/5
f 468/2/5 466/2/5 464/2/5
f 468/2/5 467/2/5 466/2/5
f 469/2/5 467/2/5 468/2/5
f 470/2/5 467/2/5 469/2/5
f 471/2/5 467/2/5 470/2/5
f 472/2/5 467/2/5 471/2/5
f 473/2/5 467/2/5 472/2/5
f 474/2/5 472/2/5 471/2/5
f 475/2/5 472/2/5 474/2/5
f 479/2/5 477/2/5 476/2/5
f 480/2/5 477/2/5 479/2/5
f 483/2/5 480/2/5 479/2/5
f 483/2/5 481/2/5 480/2/5
f 483/2/5 479/2/5 478/2/5
f 484/2/5 481/2/5 483/2/5
f 486/2/5 483/2/5 482/2/5
f 486/2/5 485/2/5 484/2/5
f 486/2/5 484/2/5 483/2/5
f 487/2/5 485/2/5 486/2/5
f 488/2/5 485/2/5 487/2/5
f 489/2/5 485/2/5 488/2/5
f 490/2/5 488/2/5 487/2/5
f 491/2/5 488/2/5 490/2/5
f 494/2/5 493/2/5 492/2/5
f 495/2/5 493/2/5 494/2/5
f 498/2/5 497/2/5 496/2/5
f 499/2/5 497/2/5 498/2/5
f 502/1/5 501/1/5 500/1/5
f 503/1/5 501/1/5 502/1/5
f 506/1/5 505/1/5 504/1/5
f 509/1/5 506/1/5 504/1/5
f 510/1/5 508/1/5 507/1/5
f 511/1/5 508/1/5 510/1/5
f 512/1/5 509/1/5 504/1/5
f 513/1/5 509/1/5 512/1/5
f 516/1/5 515/1/5 514/1/5
f 519/1/5 518/1/5 517/1/5
f 520/1/5 518/1/5 519/1/5
f 521/1/5 518/1/5 520/1/5
f 524/1/5 521/1/5 520/1/5
f 525/5/5 522/5/5 521/5/5
f 525/1/5 521/1/5 524/1/5
f 526/5/5 522/5/5 525/5/5
f 527/1/5 524/1/5 523/1/5
f 527/1/5 525/1/5 524/1/5
f 528/1/5 525/1/5 527/1/5
f 529/1/5 516/1/5 514/1/5
f 530/1/5 529/1/5 514/1/5
f 531/1/5 529/1/5 530/1/5
f 534/1/5 533/1/5 532/1/5
f 535/1/5 533/1/5 534/1/5
f 540/5/5 539/5/5 538/5/5
f 541/5/5 539/5/5 540/5/5
f 544/5/5 543/5/5 542/5/5
f 545/5/5 543/5/5 544/5/5
f 546/1/5 537/1/5 536/1/5
f 547/1/5 537/1/5 546/1/5
f 550/1/5 549/1/5 548/1/5
f 551/1/5 549/1/5 550/1/5
f 554/1/5 553/1/5 552/1/5
f 555/1/5 553/1/5 554/1/5
f 558/3/5 557/3/5 556/3/5
f 559/3/5 557/3/5 558/3/5
f 562/3/5 561/3/5 560/3/5
f 563/3/5 561/3/5 562/3/5
f 566/1/5 565/1/5 564/1/5
f 567/1/5 565/1/5 566/1/5
f 568/2/6 569/2/6 570/2/6
f 570/2/6 569/2/6 571/2/6
f 572/2/6 573/2/6 574/2/6
f 574/2/6 573/2/6 575/2/6
f 576/2/6 577/2/6 578/2/6
f 578/2/6 577/2/6 579/2/6
f 580/2/6 581/2/6 583/2/6
f 583/2/6 581/2/6 584/2/6
f 582/2/6 583/2/6 586/2/6
f 586/2/6 583/2/6 587/2/6
f 584/2/6 585/2/6 590/2/6
f 590/2/6 585/2/6 591/2/6
f 588/2/6 589/2/6 592/2/6
f 592/2/6 589/2/6 593/2/6
f 593/2/6 589/2/6 594/2/6
f 595/2/6 596/2/6 598/2/6
f 596/2/6 597/2/6 598/2/6
f 598/2/6 597/2/6 599/2/6
f 599/2/6 600/2/6 603/2/6
f 603/2/6 600/2/6 604/2/6
f 601/2/6 602/2/6 606/2/6
f 606/2/6 602/2/6 607/2/6
f 604/2/6 605/2/6 608/2/6
f 608/2/6 605/2/6 609/2/6
f 607/2/6 608/2/6 610/2/6
f 610/2/6 608/2/6 611/2/6
f 612/2/6 613/2/6 614/2/6
f 614/2/6 613/2/6 615/2/6
f 616/2/6 617/2/6 618/2/6
f 618/2/6 617/2/6 619/2/6
f 620/5/6 621/5/6 622/5/6
f 622/5/6 621/5/6 623/5/6
f 624/5/6 625/5/6 626/5/6
f 626/5/6 625/5/6 627/5/6
f 628/5/6 629/5/6 630/5/6
f 630/5/6 629/5/6 631/5/6
f 632/4/6 633/4/6 634/4/6
f 634/4/6 633/4/6 635/4/6
f 636/4/6 637/4/6 638/4/6
f 638/4/6 637/4/6 639/4/6
f 640/1/6 641/1/6 642/1/6
f 642/1/6 641/1/6 643/1/6
f 644/1/6 645/1/6 646/1/6
f 646/1/6 645/1/6 647/1/6
f 648/1/6 649/1/6 650/1/6
f 650/1/6 649/1/6 651/1/6
f 654/1/6 655/1/6 656/1/6
f 656/1/6 655/1/6 657/1/6
f 652/1/6 653/1/6 660/1/6
f 660/1/6 653/1/6 661/1/6
f 658/1/6 659/1/6 662/1/6
f 662/1/6 659/1/6 663/1/6
f 664/1/6 665/1/6 666/1/6
f 666/1/6 665/1/6 667/1/6
f 664/1/6 666/1/6 668/1/6
f 667/1/6 665/1/6 669/1/6
f 664/1/6 668/1/6 670/1/6
f 668/1/6 669/1/6 670/1/6
f 669/1/6 665/1/6 671/1/6
f 670/1/6 669/1/6 671/1/6
f 672/1/6 673/1/6 674/1/6
f 674/1/6 673/1/6 675/1/6
f 672/1/6 674/1/6 676/1/6
f 675/1/6 673/1/6 677/1/6
f 672/1/6 676/1/6 678/1/6
f 676/1/6 677/1/6 678/1/6
f 677/1/6 673/1/6 679/1/6
f 678/1/6 677/1/6 679/1/6
f 680/1/6 681/1/6 682/1/6
f 682/1/6 681/1/6 683/1/6
